<svg xmlns="http://www.w3.org/2000/svg" viewBox="0 0 128 128">
  <!-- Theme-aware Sir Wink — matches the canonical light/dark variants in
       docs/design/assets/svg/tofa-wink-*.svg. Body shade adapts to the
       browser tab's prefers-color-scheme. Face is dark ink at all times. -->
  <style>
    .body { fill: #7C5CFF; }
    .face-fill, .face-stroke { stroke: #0a0a12; fill: #0a0a12; }
    .face-stroke { fill: none; }
    @media (prefers-color-scheme: dark) {
      .body { fill: #b89eff; }
    }
  </style>
  <path class="body" d="M 64 14 C 78 14 92 18 102 22 C 104 23 106 25 106 28 V 60 C 106 86 90 104 66 114 C 65 114 63 114 62 114 C 38 104 22 86 22 60 V 28 C 22 25 24 23 26 22 C 36 18 50 14 64 14 Z"/>
  <rect class="face-fill" x="40" y="46" width="18" height="18" rx="3"/>
  <rect class="body"      x="46" y="52" width="6"  height="6"  rx="1"/>
  <path class="face-stroke" d="M 70 56 Q 79 50 88 56" stroke-width="4" stroke-linecap="round"/>
  <path class="face-stroke" d="M 48 82 Q 64 94 80 82" stroke-width="4" stroke-linecap="round"/>
</svg>
