<svg xmlns="http://www.w3.org/2000/svg" viewBox="0 0 128 128" style="color:#7C5CFF;--bg:#0a0a12">
  <defs>
    <symbol id="tofa-wink" viewBox="0 0 128 128">
      <path d="M 64 14 C 78 14 92 18 102 22 C 104 23 106 25 106 28 V 60 C 106 86 90 104 66 114 C 65 114 63 114 62 114 C 38 104 22 86 22 60 V 28 C 22 25 24 23 26 22 C 36 18 50 14 64 14 Z" fill="currentColor"/>
      <rect x="40" y="46" width="18" height="18" rx="3" fill="var(--bg)"/>
      <rect x="46" y="52" width="6" height="6" rx="1" fill="currentColor"/>
      <path d="M 70 56 Q 79 50 88 56" stroke="var(--bg)" stroke-width="4" fill="none" stroke-linecap="round"/>
      <path d="M 48 82 Q 64 94 80 82" stroke="var(--bg)" stroke-width="4" fill="none" stroke-linecap="round"/>
    </symbol>
  </defs>
  <use href="#tofa-wink" width="100%" height="100%"/>
</svg>
