<svg viewBox="0 0 1024 1024" width="1024" height="1024" xmlns="http://www.w3.org/2000/svg">
  <!-- Disk: dark circle -->
  <circle cx="512" cy="512" r="512" fill="#0D0D10"/>

  <!-- Tofa shield, centered (shield coords: 22..106 x 14..114 in 128x128) -->
  <!-- Scale ~5.5x, translated to center in 1024x1024 -->
  <g transform="translate(162, 137) scale(5.5)">
    <path d="M 64 14 C 78 14 92 18 102 22 C 104 23 106 25 106 28 V 60 C 106 86 90 104 66 114 C 65 114 63 114 62 114 C 38 104 22 86 22 60 V 28 C 22 25 24 23 26 22 C 36 18 50 14 64 14 Z" fill="#7C5CFF"/>
    <!-- QR eye left outer -->
    <rect x="40" y="46" width="18" height="18" rx="3" fill="#140F1E"/>
    <!-- QR eye left inner -->
    <rect x="46" y="52" width="6" height="6" rx="1" fill="#7C5CFF"/>
    <!-- wink right -->
    <path d="M 70 56 Q 79 50 88 56" stroke="#140F1E" stroke-width="4.5" fill="none" stroke-linecap="round"/>
    <!-- smile -->
    <path d="M 48 82 Q 64 94 80 82" stroke="#140F1E" stroke-width="4.5" fill="none" stroke-linecap="round"/>
  </g>
</svg>
