<svg xmlns="http://www.w3.org/2000/svg" viewBox="18 10 92 108" width="44" height="44">
  <!-- shield body -->
  <path d="M 64 14 C 78 14 92 18 102 22 C 104 23 106 25 106 28 V 60 C 106 86 90 104 66 114 C 65 114 63 114 62 114 C 38 104 22 86 22 60 V 28 C 22 25 24 23 26 22 C 36 18 50 14 64 14 Z" fill="#7C5CFF"/>
  <!-- QR eye left outer -->
  <rect x="40" y="46" width="18" height="18" rx="3" fill="#1a0f2e"/>
  <!-- QR eye left inner -->
  <rect x="46" y="52" width="6" height="6" rx="1" fill="#7C5CFF"/>
  <!-- QR eye right outer -->
  <rect x="70" y="46" width="18" height="18" rx="3" fill="#1a0f2e"/>
  <!-- QR eye right inner -->
  <rect x="76" y="52" width="6" height="6" rx="1" fill="#7C5CFF"/>
  <!-- smile -->
  <path d="M 48 82 Q 64 94 80 82" stroke="#1a0f2e" stroke-width="4" fill="none" stroke-linecap="round"/>
</svg>
